<svg width="118" height="118" viewBox="0 0 118 118" fill="none" xmlns="http://www.w3.org/2000/svg">
<path fill-rule="evenodd" clip-rule="evenodd" d="M59 30C42.9837 30 30 42.9837 30 59C30 75.0163 42.9837 88 59 88C75.0163 88 88 75.0163 88 59C88 42.9837 75.0163 30 59 30ZM28 59C28 41.8792 41.8792 28 59 28C76.1208 28 90 41.8792 90 59C90 76.1208 76.1208 90 59 90C41.8792 90 28 76.1208 28 59Z" fill="#FFE1BE"/>
<g filter="url(#filter0_d)">
<path fill-rule="evenodd" clip-rule="evenodd" d="M59 34C45.1929 34 34 45.1929 34 59C34 72.8071 45.1929 84 59 84C72.8071 84 84 72.8071 84 59C84 56.2386 86.2386 54 89 54C91.7614 54 94 56.2386 94 59C94 78.33 78.33 94 59 94C39.67 94 24 78.33 24 59C24 39.67 39.67 24 59 24C64.6562 24 70.0125 25.3455 74.753 27.7383C77.2182 28.9826 78.2079 31.9897 76.9636 34.4549C75.7193 36.9201 72.7121 37.9098 70.247 36.6655C66.8719 34.9619 63.0555 34 59 34Z" fill="url(#paint0_linear)"/>
</g>
<defs>
<filter id="filter0_d" x="14" y="14" width="90" height="90" filterUnits="userSpaceOnUse" color-interpolation-filters="sRGB">
<feFlood flood-opacity="0" result="BackgroundImageFix"/>
<feColorMatrix in="SourceAlpha" type="matrix" values="0 0 0 0 0 0 0 0 0 0 0 0 0 0 0 0 0 0 127 0"/>
<feOffset/>
<feGaussianBlur stdDeviation="5"/>
<feColorMatrix type="matrix" values="0 0 0 0 0.996078 0 0 0 0 0.650981 0 0 0 0 0.239216 0 0 0 0.5 0"/>
<feBlend mode="normal" in2="BackgroundImageFix" result="effect1_dropShadow"/>
<feBlend mode="normal" in="SourceGraphic" in2="effect1_dropShadow" result="shape"/>
</filter>
<linearGradient id="paint0_linear" x1="34.5" y1="31.5" x2="83" y2="86.5" gradientUnits="userSpaceOnUse">
<stop stop-color="#FAE1C4"/>
<stop offset="1" stop-color="#FF9F2D"/>
</linearGradient>
</defs>
</svg>
