<svg width="1623" height="200" viewBox="0 0 1623 200" fill="none" xmlns="http://www.w3.org/2000/svg">
<g clip-path="url(#clip0)">
<path d="M6.64893 -0.164062H1617.54V140.707C1536.77 58.4909 1447.61 39.6069 1413.12 40.4429C1352.34 40.4429 1265.84 72.8619 1230.19 89.0709C1155.42 131.182 1051.76 141.041 1009.27 140.707C943.697 140.707 838.336 123.662 793.853 115.14C709.885 95.889 601.592 88.0689 557.942 86.5649C474.773 86.5649 381.341 126.336 345.022 146.222C311.035 169.082 237.562 181.481 205.074 184.823C71.9244 172.792 17.3116 56.4849 6.64893 -0.164062Z" fill="white"/>
<path d="M0.594727 -0.164062L1.17827 1.87595C29.4888 100.826 80.9727 148.125 126.573 170.235C149.176 181.193 169.978 185.794 185.193 187.652C192.806 188.581 199.046 188.828 203.45 188.836C205.653 188.84 207.401 188.784 208.635 188.724C209.223 188.696 209.695 188.666 210.045 188.641C235.047 189.051 296.947 181.376 356.351 147.76L356.61 147.614L356.861 147.453C385.833 128.918 470.281 90.7929 570.387 90.7589C603.801 91.5929 689.354 97.6119 764.132 114.936C811.638 126.276 926.004 149.171 1001.62 149.184C1045.29 149.681 1151.43 140.468 1226.15 98.3319L1226.22 98.293L1226.29 98.252C1256.45 80.662 1337.18 45.317 1416.38 45.317H1416.48L1416.57 45.3149C1452.32 44.6929 1541.39 62.6549 1603.43 140.071L1623 164.484V-0.164062H1612V133.161C1608.42 128.689 1604.75 124.407 1601.01 120.308C1537.22 50.4359 1452.52 33.659 1416.38 34.288C1334.54 34.288 1251.87 70.575 1220.76 88.718C1148.5 129.466 1044.6 138.654 1001.69 138.155C927.43 138.155 814.05 115.517 766.642 104.198C690.789 86.6209 604.29 80.5619 570.522 79.7299C467.921 79.7299 381.388 118.68 350.947 138.155C293.06 170.912 232.677 178.103 209.721 177.604C209.721 177.604 72.2762 190.543 15.0689 9.86194C14.031 6.58394 13.0195 3.24294 12.0357 -0.164062H0.594727Z" fill="white"/>
<path fill-rule="evenodd" clip-rule="evenodd" d="M1623 0H1V21.9573L1.58334 22.0512H1.58339C1.68 22.0667 1.77691 22.0822 1.87406 22.0977C2.64989 22.2213 3.44285 22.3432 4.25237 22.4633C4.49588 22.4995 4.74087 22.5354 4.98736 22.5712C5.98841 22.7167 7.01389 22.8596 8.06274 23H1623V0Z" fill="white"/>
<path fill-rule="evenodd" clip-rule="evenodd" d="M121.774 180.133C78.3112 159.059 30.9446 116.905 0.594727 35.4039V-0.164062L1.17821 1.87595C1.27487 2.21295 1.37181 2.55093 1.46901 2.88693C2.24503 5.57493 3.03819 8.22394 3.84791 10.8359C4.09148 11.6219 4.33653 12.4039 4.58308 13.1819C7.55707 22.5759 10.7467 31.4749 14.1239 39.9039C43.5641 113.382 87.2555 151.171 126.573 170.235C149.176 181.193 169.978 185.794 185.193 187.652C192.806 188.581 199.046 188.828 203.45 188.836C203.889 188.837 204.31 188.835 204.712 188.832C204.978 188.829 205.236 188.826 205.486 188.822C206.754 188.803 207.809 188.764 208.635 188.724C209.223 188.696 209.695 188.666 210.045 188.641C233.915 189.033 291.421 182.054 348.276 152.165L348.547 152.023L348.825 151.876C351.336 150.549 353.845 149.178 356.35 147.76L356.61 147.614L356.861 147.453C384.609 129.7 463.247 93.9779 557.79 90.9619L557.942 90.9579C562.061 90.8279 566.21 90.7599 570.387 90.7589C603.801 91.5929 689.353 97.6119 764.132 114.936C771.925 116.796 781.517 118.967 792.441 121.297L792.664 121.345C848.357 133.214 938.492 149.173 1001.62 149.184C1003.97 149.21 1006.51 149.209 1009.21 149.176L1009.27 149.175C1056.72 148.584 1155.48 138.181 1226.15 98.3319L1226.22 98.293L1226.29 98.252C1228.23 97.12 1230.38 95.915 1232.73 94.65C1232.88 94.567 1233.03 94.484 1233.19 94.4C1267.01 76.252 1340.41 46.2179 1413.12 45.3369L1413.24 45.335C1414.29 45.323 1415.34 45.317 1416.38 45.317H1416.48L1416.57 45.3149C1452.32 44.6929 1541.39 62.6549 1603.43 140.071L1612 150.759L1612.01 150.766L1623 164.484V182.073L1594.85 146.95C1535.43 72.808 1449.99 55.735 1416.77 56.314L1416.57 56.317H1416.38C1339.83 56.317 1261.04 90.717 1231.83 107.754L1231.7 107.834L1231.55 107.913C1154.36 151.441 1045.97 160.68 1001.56 160.184C924.575 160.158 809.222 137.006 761.614 125.644C687.915 108.574 603.315 102.595 570.252 101.759C472.649 101.827 390.292 139.124 362.789 156.719L362.287 157.04L361.768 157.334C300.759 191.858 237.251 199.982 210.333 199.646C209.997 199.668 209.609 199.69 209.17 199.711C207.761 199.78 205.828 199.84 203.43 199.836C198.637 199.827 191.956 199.559 183.86 198.57C167.689 196.596 145.672 191.72 121.774 180.133Z" fill="#41228E" fill-opacity="0.03"/>
</g>
<defs>
<clipPath id="clip0">
<rect width="1623" height="200" fill="white"/>
</clipPath>
</defs>
</svg>
