<svg width="169" height="96" viewBox="0 0 169 96" fill="none" xmlns="http://www.w3.org/2000/svg">
<g clip-path="url(#clip0)">
<path d="M2 15.5C2 30.3 13.6667 34 19.5 34C30.5 34 40 42.5 44 51.5C47.2 59.9 52 67 54 69.5C66 84.7 93.3333 88.1667 105.5 88L137 87C146.2 94.6 155.5 96.1667 159 96C163.5 96 169 92.5 169 85C169 75 164.522 68.5 162 65C153.5 53 123.5 40 106.5 38C60.5 31.5 47 14 39 7.5C32.6 2.3 26 1 23.5 1C9.5 1 3.33333 10.6667 2 15.5Z" fill="#2DDAD6"/>
<path d="M20 4.5C3.20001 4.5 0.333339 12.5 1.00001 16.5C1.00001 28.5 16 32 20 32C24 32 36.5 33.5 48 58C57.2 77.6 76.5 82.8333 85 83C95.4 74.6 108.333 72.8333 113.5 73C117.333 72.8333 128.2 74.2 141 81C153.8 87.8 161.667 89.1667 164 89C168 89 169 86.6667 169 85.5C169 72.5 148.5 56 135 48.5C124.2 42.5 108.833 40.6667 102.5 40.5C93.8333 40.1667 73.3 38.6 60.5 35C47.7 31.4 40.8333 21.1667 39 16.5C35 6.9 24.6667 4.5 20 4.5Z" fill="#3EF8F4"/>
</g>
<defs>
<clipPath id="clip0">
<rect width="169" height="96" fill="white"/>
</clipPath>
</defs>
</svg>
