<svg width="58" height="47" viewBox="0 0 58 47" fill="none" xmlns="http://www.w3.org/2000/svg">
<path d="M26 20.9999C26 5.39994 16.6667 1.1666 12 0.999937C8 0.666604 0 2.99994 0 14.9999C0 26.9999 8.66667 29.6666 13 29.4999C14.6 29.4999 17 28.4999 18 27.9999C17.2 35.5999 12.3333 43.8333 10 46.9999C22.8 42.5999 26 27.8333 26 20.9999Z" fill="white"/>
<path d="M58 20.9999C58 5.39994 48.6667 1.1666 44 0.999937C40 0.666604 32 2.99994 32 14.9999C32 26.9999 40.6667 29.6666 45 29.4999C46.6 29.4999 49 28.4999 50 27.9999C49.2 35.5999 44.3333 43.8333 42 46.9999C54.8 42.5999 58 27.8333 58 20.9999Z" fill="white"/>
</svg>
