<svg width="118" height="118" viewBox="0 0 118 118" fill="none" xmlns="http://www.w3.org/2000/svg">
<path fill-rule="evenodd" clip-rule="evenodd" d="M59 87C74.464 87 87 74.464 87 59C87 43.536 74.464 31 59 31C43.536 31 31 43.536 31 59C31 74.464 43.536 87 59 87ZM59 89C75.5685 89 89 75.5685 89 59C89 42.4315 75.5685 29 59 29C42.4315 29 29 42.4315 29 59C29 75.5685 42.4315 89 59 89Z" fill="#C0FDFC"/>
<g filter="url(#filter0_d)">
<path fill-rule="evenodd" clip-rule="evenodd" d="M59 34C45.1929 34 34 45.1929 34 59C34 72.8071 45.1929 84 59 84C61.7614 84 64 86.2386 64 89C64 91.7614 61.7614 94 59 94C39.67 94 24 78.33 24 59C24 39.67 39.67 24 59 24C78.33 24 94 39.67 94 59C94 66.9774 91.325 74.3444 86.8257 80.233C85.1491 82.4273 82.0112 82.8469 79.817 81.1704C77.6228 79.4938 77.2031 76.356 78.8797 74.1617C82.0933 69.9557 84 64.7076 84 59C84 45.1929 72.8071 34 59 34Z" fill="url(#paint0_linear)"/>
</g>
<defs>
<filter id="filter0_d" x="14" y="14" width="90" height="90" filterUnits="userSpaceOnUse" color-interpolation-filters="sRGB">
<feFlood flood-opacity="0" result="BackgroundImageFix"/>
<feColorMatrix in="SourceAlpha" type="matrix" values="0 0 0 0 0 0 0 0 0 0 0 0 0 0 0 0 0 0 127 0"/>
<feOffset/>
<feGaussianBlur stdDeviation="5"/>
<feColorMatrix type="matrix" values="0 0 0 0 0.239216 0 0 0 0 0.996078 0 0 0 0 0.866667 0 0 0 0.5 0"/>
<feBlend mode="normal" in2="BackgroundImageFix" result="effect1_dropShadow"/>
<feBlend mode="normal" in="SourceGraphic" in2="effect1_dropShadow" result="shape"/>
</filter>
<linearGradient id="paint0_linear" x1="83.5" y1="33" x2="34.5" y2="85.5" gradientUnits="userSpaceOnUse">
<stop stop-color="#45F7FB"/>
<stop offset="1" stop-color="#3CFFD9"/>
</linearGradient>
</defs>
</svg>
