<svg width="118" height="118" viewBox="0 0 118 118" fill="none" xmlns="http://www.w3.org/2000/svg">
<path fill-rule="evenodd" clip-rule="evenodd" d="M59 31C43.536 31 31 43.536 31 59C31 74.464 43.536 87 59 87C74.464 87 87 74.464 87 59C87 43.536 74.464 31 59 31ZM29 59C29 42.4315 42.4315 29 59 29C75.5685 29 89 42.4315 89 59C89 75.5685 75.5685 89 59 89C42.4315 89 29 75.5685 29 59Z" fill="#FDD6EA"/>
<g filter="url(#filter0_d)">
<path fill-rule="evenodd" clip-rule="evenodd" d="M54 29C54 26.2386 56.2386 24 59 24C78.33 24 94 39.67 94 59C94 78.33 78.33 94 59 94C48.3543 94 38.8147 89.2409 32.4031 81.7517C30.6072 79.654 30.8519 76.4977 32.9496 74.7018C35.0472 72.9059 38.2036 73.1506 39.9995 75.2483C44.5923 80.613 51.398 84 59 84C72.8071 84 84 72.8071 84 59C84 45.1929 72.8071 34 59 34C56.2386 34 54 31.7614 54 29Z" fill="url(#paint0_linear)"/>
</g>
<defs>
<filter id="filter0_d" x="21.2012" y="14" width="82.7988" height="90" filterUnits="userSpaceOnUse" color-interpolation-filters="sRGB">
<feFlood flood-opacity="0" result="BackgroundImageFix"/>
<feColorMatrix in="SourceAlpha" type="matrix" values="0 0 0 0 0 0 0 0 0 0 0 0 0 0 0 0 0 0 127 0"/>
<feOffset/>
<feGaussianBlur stdDeviation="5"/>
<feColorMatrix type="matrix" values="0 0 0 0 0.960784 0 0 0 0 0.34902 0 0 0 0 0.658823 0 0 0 0.5 0"/>
<feBlend mode="normal" in2="BackgroundImageFix" result="effect1_dropShadow"/>
<feBlend mode="normal" in="SourceGraphic" in2="effect1_dropShadow" result="shape"/>
</filter>
<linearGradient id="paint0_linear" x1="83.5" y1="32.5" x2="35" y2="85" gradientUnits="userSpaceOnUse">
<stop stop-color="#FDA1CF"/>
<stop offset="1" stop-color="#F551A4"/>
</linearGradient>
</defs>
</svg>
