<svg width="75" height="124" viewBox="0 0 75 124" fill="none" xmlns="http://www.w3.org/2000/svg">
<path d="M9 4.5C9 6.98528 6.98528 9 4.5 9C2.01472 9 0 6.98528 0 4.5C0 2.01472 2.01472 0 4.5 0C6.98528 0 9 2.01472 9 4.5Z" fill="#FF9E2B"/>
<path d="M31 4.5C31 6.98528 28.9853 9 26.5 9C24.0147 9 22 6.98528 22 4.5C22 2.01472 24.0147 0 26.5 0C28.9853 0 31 2.01472 31 4.5Z" fill="#FF9E2B"/>
<path d="M53 4.5C53 6.98528 50.9853 9 48.5 9C46.0147 9 44 6.98528 44 4.5C44 2.01472 46.0147 0 48.5 0C50.9853 0 53 2.01472 53 4.5Z" fill="#FF9E2B"/>
<path d="M75 4.5C75 6.98528 72.9853 9 70.5 9C68.0147 9 66 6.98528 66 4.5C66 2.01472 68.0147 0 70.5 0C72.9853 0 75 2.01472 75 4.5Z" fill="#FF9E2B"/>
<path d="M9 27.5C9 29.9853 6.98528 32 4.5 32C2.01472 32 0 29.9853 0 27.5C0 25.0147 2.01472 23 4.5 23C6.98528 23 9 25.0147 9 27.5Z" fill="#FF9E2B"/>
<path d="M31 27.5C31 29.9853 28.9853 32 26.5 32C24.0147 32 22 29.9853 22 27.5C22 25.0147 24.0147 23 26.5 23C28.9853 23 31 25.0147 31 27.5Z" fill="#FF9E2B"/>
<path d="M53 27.5C53 29.9853 50.9853 32 48.5 32C46.0147 32 44 29.9853 44 27.5C44 25.0147 46.0147 23 48.5 23C50.9853 23 53 25.0147 53 27.5Z" fill="#FF9E2B"/>
<path d="M75 27.5C75 29.9853 72.9853 32 70.5 32C68.0147 32 66 29.9853 66 27.5C66 25.0147 68.0147 23 70.5 23C72.9853 23 75 25.0147 75 27.5Z" fill="#FF9E2B"/>
<path d="M9 50.5C9 52.9853 6.98528 55 4.5 55C2.01472 55 0 52.9853 0 50.5C0 48.0147 2.01472 46 4.5 46C6.98528 46 9 48.0147 9 50.5Z" fill="#FF9E2B"/>
<path d="M31 50.5C31 52.9853 28.9853 55 26.5 55C24.0147 55 22 52.9853 22 50.5C22 48.0147 24.0147 46 26.5 46C28.9853 46 31 48.0147 31 50.5Z" fill="#FF9E2B"/>
<path d="M53 50.5C53 52.9853 50.9853 55 48.5 55C46.0147 55 44 52.9853 44 50.5C44 48.0147 46.0147 46 48.5 46C50.9853 46 53 48.0147 53 50.5Z" fill="#FF9E2B"/>
<path d="M75 50.5C75 52.9853 72.9853 55 70.5 55C68.0147 55 66 52.9853 66 50.5C66 48.0147 68.0147 46 70.5 46C72.9853 46 75 48.0147 75 50.5Z" fill="#FF9E2B"/>
<path d="M9 73.5C9 75.9853 6.98528 78 4.5 78C2.01472 78 0 75.9853 0 73.5C0 71.0147 2.01472 69 4.5 69C6.98528 69 9 71.0147 9 73.5Z" fill="#FF9E2B"/>
<path d="M31 73.5C31 75.9853 28.9853 78 26.5 78C24.0147 78 22 75.9853 22 73.5C22 71.0147 24.0147 69 26.5 69C28.9853 69 31 71.0147 31 73.5Z" fill="#FF9E2B"/>
<path d="M53 73.5C53 75.9853 50.9853 78 48.5 78C46.0147 78 44 75.9853 44 73.5C44 71.0147 46.0147 69 48.5 69C50.9853 69 53 71.0147 53 73.5Z" fill="#FF9E2B"/>
<path d="M75 73.5C75 75.9853 72.9853 78 70.5 78C68.0147 78 66 75.9853 66 73.5C66 71.0147 68.0147 69 70.5 69C72.9853 69 75 71.0147 75 73.5Z" fill="#FF9E2B"/>
<path d="M9 96.5C9 98.9853 6.98528 101 4.5 101C2.01472 101 0 98.9853 0 96.5C0 94.0147 2.01472 92 4.5 92C6.98528 92 9 94.0147 9 96.5Z" fill="#FF9E2B"/>
<path d="M31 96.5C31 98.9853 28.9853 101 26.5 101C24.0147 101 22 98.9853 22 96.5C22 94.0147 24.0147 92 26.5 92C28.9853 92 31 94.0147 31 96.5Z" fill="#FF9E2B"/>
<path d="M53 96.5C53 98.9853 50.9853 101 48.5 101C46.0147 101 44 98.9853 44 96.5C44 94.0147 46.0147 92 48.5 92C50.9853 92 53 94.0147 53 96.5Z" fill="#FF9E2B"/>
<path d="M75 96.5C75 98.9853 72.9853 101 70.5 101C68.0147 101 66 98.9853 66 96.5C66 94.0147 68.0147 92 70.5 92C72.9853 92 75 94.0147 75 96.5Z" fill="#FF9E2B"/>
<path d="M9 119.5C9 121.985 6.98528 124 4.5 124C2.01472 124 0 121.985 0 119.5C0 117.015 2.01472 115 4.5 115C6.98528 115 9 117.015 9 119.5Z" fill="#FF9E2B"/>
<path d="M31 119.5C31 121.985 28.9853 124 26.5 124C24.0147 124 22 121.985 22 119.5C22 117.015 24.0147 115 26.5 115C28.9853 115 31 117.015 31 119.5Z" fill="#FF9E2B"/>
<path d="M53 119.5C53 121.985 50.9853 124 48.5 124C46.0147 124 44 121.985 44 119.5C44 117.015 46.0147 115 48.5 115C50.9853 115 53 117.015 53 119.5Z" fill="#FF9E2B"/>
<path d="M75 119.5C75 121.985 72.9853 124 70.5 124C68.0147 124 66 121.985 66 119.5C66 117.015 68.0147 115 70.5 115C72.9853 115 75 117.015 75 119.5Z" fill="#FF9E2B"/>
</svg>
