<svg width="1600" height="864" viewBox="0 0 1600 864" fill="none" xmlns="http://www.w3.org/2000/svg">
<path d="M1600 64.1185H0V863.992H1600V64.1185Z" fill="#36197F"/>
<path d="M0 0H1600V583.245C1587.32 546.785 1551.29 473.892 1509.07 473.892C1504.44 473.7 1493.83 477.406 1488.49 493.761C1484.17 506.825 1467.15 536.043 1447.99 532.95C1446.81 532.76 1445.64 532.612 1444.47 532.463C1426.57 530.195 1407.02 527.716 1317.14 370.746C1285.82 311.502 1216.01 193.011 1148.89 193.011C1131.82 192.49 1091.91 207.599 1068.86 272.202C1068.46 273.298 1068.05 274.435 1067.63 275.605C1056.3 307.037 1035.86 363.787 990.168 363.787C964.627 363.787 924.579 353.82 821.74 250.674C718.901 147.528 686.943 129.316 622.947 129.316C604.656 129.316 563.424 139.486 563.424 196.351C564.476 250.674 593.923 320.944 596.364 326.378C596.546 326.784 596.784 327.303 597.067 327.922C600.575 335.586 611.118 358.621 611.118 372.849C611.118 388.223 598.305 404.72 547.054 404.72C521.021 404.519 451.226 396.739 380.312 367.225C375.362 365.094 369.924 362.611 364.098 359.951C334.529 346.45 294.94 328.375 258.17 328.375C249.208 328.375 230.808 329.666 211.683 339.595C184.949 353.475 157.17 379.045 157.17 402.407C156.62 412.04 165.591 437.69 205.882 463.229C222.852 472.127 256.794 495.153 256.794 516.069C255.877 533.958 232.842 565.337 140.382 576.891C101.073 580.45 41.1783 588.559 30.5747 650.097C29.6573 659.638 35.0331 682.627 63.8747 698.259C69.1037 701.745 79.5615 710.919 79.5615 719.726C79.2864 724.404 74.2225 736.679 56.1689 748.348C38.0491 760.113 1.44754 784.727 0 789.07V0Z" fill="#41228E"/>
<path d="M1510.25 837.578C1321.76 792.683 1071.87 733.173 691.589 733.173C534.087 731.644 180.036 754.531 0.0458984 847.222C77.4549 824.267 289.828 778.592 524.557 778.592C527.369 778.592 531.257 778.508 536.237 778.402C595.134 777.139 806.594 772.607 1192.25 864H1600V858.527C1571.58 852.183 1541.78 845.085 1510.25 837.578Z" fill="#41228E"/>
<path fill-rule="evenodd" clip-rule="evenodd" d="M932.502 204.007C934.987 204.007 937.002 201.993 937.002 199.507C937.002 197.022 934.987 195.008 932.502 195.008C930.017 195.008 928.002 197.022 928.002 199.507C928.002 201.993 930.017 204.007 932.502 204.007ZM977.502 204.007C979.987 204.007 982.002 201.993 982.002 199.507C982.002 197.022 979.987 195.008 977.502 195.008C975.016 195.008 973.002 197.022 973.002 199.507C973.002 201.993 975.016 204.007 977.502 204.007ZM1053 199.507C1053 201.993 1050.99 204.007 1048.51 204.007C1046.01 204.007 1044 201.993 1044 199.507C1044 197.022 1046.01 195.008 1048.51 195.008C1050.99 195.008 1053 197.022 1053 199.507ZM954.502 204.007C956.987 204.007 959.002 201.993 959.002 199.507C959.002 197.022 956.987 195.008 954.502 195.008C952.017 195.008 950.002 197.022 950.002 199.507C950.002 201.993 952.017 204.007 954.502 204.007ZM1003.51 204.007C1005.99 204.007 1008 201.993 1008 199.507C1008 197.022 1005.99 195.008 1003.51 195.008C1001.02 195.008 999.002 197.022 999.002 199.507C999.002 201.993 1001.02 204.007 1003.51 204.007ZM1030 199.507C1030 201.993 1027.98 204.007 1025.5 204.007C1023.02 204.007 1021 201.993 1021 199.507C1021 197.022 1023.02 195.008 1025.5 195.008C1027.98 195.008 1030 197.022 1030 199.507Z" fill="#FF9E2B"/>
<path d="M730.141 209.351C730.141 198.762 720.354 196.027 715.461 195.983C702.041 195.983 690.93 206.716 679.681 218.919C662.45 237.611 658.229 258.195 657.923 267.02C657.923 284.216 668.584 288.689 673.913 288.776C687.23 288.776 695.627 274.796 698.16 267.806C707.388 243.272 719.481 226.215 724.374 220.754C728.777 216.35 730.053 211.318 730.141 209.351Z" fill="#FE744F"/>
<path d="M673.773 288.773C674.549 267.245 683.486 224.599 714.845 203.379L713.61 202.285C700.446 210.365 673.633 238.455 670.324 288.168C671.584 288.559 672.767 288.742 673.773 288.773Z" fill="#DA6048"/>
<path d="M1575.79 269.816C1589.61 267.843 1597.69 265.166 1600 264.074V117.078C1582.01 111.786 1568.82 116.364 1564.49 119.321C1553.35 126.418 1554.04 139.294 1555.78 144.846C1556.52 146.9 1556.76 150.163 1556.79 151.537C1556.79 163.865 1541.95 168.347 1534.54 169.047C1523.39 170.354 1507.85 173.6 1501.48 175.06C1465.13 185.082 1456.65 209.306 1456.95 220.165C1456.95 227.91 1459.68 235.921 1461.05 238.959C1464.24 247.068 1465.33 254.228 1465.48 256.795C1465.48 270.044 1455.81 277.495 1450.99 279.566C1434 288.428 1429.83 307.38 1429.86 315.747C1429.86 331.495 1438.56 342.181 1442.9 345.557C1450.75 351.583 1454.27 357.421 1455.06 359.586C1457.54 366.45 1457.31 378.82 1456.88 384.148C1456.88 395.73 1464.25 398.913 1467.93 399.055C1486 399.055 1497.72 373.284 1499.02 361.625C1501.45 339.959 1516.9 339.959 1528.94 339.959C1552.08 339.959 1560.36 316.578 1560.15 304.888L1559.07 292.017C1559.07 275.972 1570.22 270.531 1575.79 269.816Z" fill="#FF9E2B"/>
<path d="M1472.3 397.405L1476.49 396.576C1488.07 206.73 1596.04 159.89 1599.96 154.968L1599.86 151.849C1474.82 222.127 1472.3 379.349 1472.3 397.405Z" fill="#D77D13"/>
<path d="M61.855 223.558C51.3921 217.033 38.1077 215.3 32.7734 215.249C16.2231 215.249 4.02854 221.958 0 225.313V377.132C20.7028 386.301 35.0559 387.118 39.6977 387.118C62.7164 387.118 84.1656 376.758 92.0129 371.577C120.324 353.975 133.968 315.211 137.25 298.029C141.066 284.612 167.807 274.839 181.256 270.026C216.338 257.47 222.955 236.578 222.955 208.633C222.955 164.196 195.771 153.702 182.18 154.009C147.344 154.009 129.198 173.5 124.479 183.244C116.601 201.709 101.81 214.223 95.398 218.173C78.4109 228.02 65.958 225.865 61.855 223.558Z" fill="#DC3C8C"/>
<path d="M50.4831 222.453C27.0244 222.453 7.05324 237.272 0 244.681L0.125953 312.319C90.6997 280.063 137.617 236.501 165.141 217.234C113.403 269.647 33.5733 307.073 0.125953 319.233V361.927C9.69304 363.393 19.9394 367.952 23.8666 370.048C50.7538 384.448 77.3251 377.099 87.2499 371.623C112.874 356.864 120.182 325.275 120.633 311.325C125.505 278.567 161.01 265.127 178.152 262.502C213.701 253.682 222.287 222.227 222.137 207.603C222.137 165.844 195.069 155.255 181.535 155.18C155.911 155.18 138.979 183.829 133.716 198.153C120.182 224.072 97.2499 231.153 87.4755 231.452C75.7462 231.452 69.3552 228.603 67.626 227.178C60.4079 223.217 53.1898 222.377 50.4831 222.453Z" fill="#F54EA2"/>
<path d="M1593.41 655.773C1598.3 667.028 1599.82 686.671 1599.97 695.086C1539.6 662.27 1484.13 654.921 1463.94 655.35C1456.14 655.35 1447.68 657.106 1444.43 657.984C1507.44 654.386 1570.47 689.276 1594.11 707.172C1595.5 708.256 1595.85 709.938 1595.85 710.643C1592.55 708.603 1588.43 708.347 1586.78 708.473C1583.88 708.473 1577.55 713.536 1574.74 716.067C1568.67 721.145 1563.79 722.125 1562.11 721.98C1559.28 721.98 1559.22 719.232 1559.55 717.857C1559.72 716.903 1559.91 715.326 1559.99 714.657C1559.99 710.925 1557.24 710.101 1555.86 710.155C1554.09 710.155 1551.36 711.746 1550.23 712.542C1537.99 720.743 1528.97 722.613 1525.97 722.522C1520.08 722.522 1518.64 718.617 1518.66 716.664C1518.66 713.453 1520.93 709.974 1522.07 708.636C1523.42 706.726 1523.79 704.731 1523.81 703.971C1523.81 700.326 1516.36 700.716 1512.64 701.367C1503.78 703.103 1491.19 703.827 1486 703.971C1474.37 703.971 1471.57 699.523 1471.63 697.299C1471.63 693.914 1475.78 691.368 1477.86 690.518C1479.51 689.694 1479.92 688.042 1479.92 687.319C1479.92 683.673 1467.67 683.015 1461.53 683.142C1452.95 683.142 1450.94 680.176 1451.02 678.694C1451.02 676.784 1452.14 674.932 1452.7 674.246C1453.56 673.161 1453.93 670.937 1454 669.961C1454 665.274 1449.34 664.211 1446.99 664.265C1440.32 664.265 1438.94 661.046 1439.08 659.437C1439.08 653.623 1446.31 650.722 1449.93 649.999C1455.18 648.957 1453.24 645.731 1451.61 644.249C1450.35 643.12 1450.18 641.754 1450.26 641.211C1450.26 635.614 1455.64 634.829 1458.33 635.136L1466.2 636.004C1473.14 636.004 1474.37 633.039 1474.12 631.556C1474.12 630.211 1471.63 627.415 1470.38 626.186C1467.69 623.799 1467.02 621.178 1467.02 620.165C1467.02 614.958 1472.62 614.198 1475.42 614.469C1479.54 614.469 1486.18 618.953 1488.98 621.196C1496.5 626.62 1503.32 627.976 1505.8 627.976C1510.41 627.976 1509.97 625.102 1509.97 624.613C1509.97 624.223 1508.85 616.892 1508.29 613.276C1508.29 605.595 1512.42 603.675 1514.48 603.675C1521.94 603.675 1531.98 618.48 1536.07 625.883C1540.1 632.322 1544.62 633.288 1546.38 632.967C1549.02 632.967 1553.04 627.687 1554.73 625.048C1557.41 620.664 1560.7 619.93 1562 620.111C1566.12 620.111 1568.77 623.958 1569.58 625.883C1572.04 631.532 1576.85 645.601 1578.95 651.931C1580.72 657.143 1583.66 658.138 1584.9 657.984C1586.71 657.984 1587.91 656.51 1588.27 655.773C1590.38 651.418 1592.58 653.959 1593.41 655.773Z" fill="#3EF8F4"/>
<path d="M1029.37 695.609L1017.97 671.17L1021.3 696.569C1018.38 696.652 1010.83 696.894 1007.42 697.004C977.783 697.004 970.701 684.575 971.127 671.17C971.127 638.753 998.852 629.03 1012.71 629.056C1046.56 629.056 1055.1 657.132 1055.13 671.17C1055.13 690.64 1037.96 695.576 1029.37 695.609Z" fill="#F54EA2"/>
<path d="M972.762 658.416C973.807 654.624 975.311 651.272 977.144 648.319L990.698 660.606L972.762 658.416Z" fill="#DF4090"/>
<path d="M988.501 694.651C984.443 693.419 981.247 691.749 978.764 689.756L1007.61 670.567L988.501 694.651Z" fill="#DF4090"/>
<path d="M1054.87 666.721C1055.05 668.311 1055.13 669.806 1055.13 671.17C1055.13 671.997 1055.1 672.798 1055.04 673.573L1026.74 671.353L1054.87 666.721Z" fill="#DF4090"/>
<path d="M1046.62 644.869C1048.41 647.328 1049.86 649.925 1051.02 652.543L1036.44 657.853L1046.62 644.869Z" fill="#DF4090"/>
<path d="M1020.32 629.567C1023.79 630.055 1026.94 630.875 1029.79 631.961L1020.32 653.659V629.567Z" fill="#DF4090"/>
<path d="M1000.1 631.152L1006.04 660.606L992.593 634.266C995.086 632.966 997.623 631.939 1000.1 631.152Z" fill="#DF4090"/>
<path fill-rule="evenodd" clip-rule="evenodd" d="M468.48 695.99C470.965 695.99 472.98 693.975 472.98 691.489C472.98 689.005 470.965 686.99 468.48 686.99C465.994 686.99 463.98 689.005 463.98 691.489C463.98 693.975 465.994 695.99 468.48 695.99ZM490.48 695.99C492.965 695.99 494.979 693.975 494.979 691.489C494.979 689.005 492.965 686.99 490.48 686.99C487.994 686.99 485.98 689.005 485.98 691.489C485.98 693.975 487.994 695.99 490.48 695.99ZM516.979 691.489C516.979 693.975 514.965 695.99 512.479 695.99C509.995 695.99 507.979 693.975 507.979 691.489C507.979 689.005 509.995 686.99 512.479 686.99C514.965 686.99 516.979 689.005 516.979 691.489ZM534.48 695.99C536.965 695.99 538.98 693.975 538.98 691.489C538.98 689.005 536.965 686.99 534.48 686.99C531.995 686.99 529.979 689.005 529.979 691.489C529.979 693.975 531.995 695.99 534.48 695.99ZM468.48 717.989C470.964 717.989 472.98 715.975 472.98 713.49C472.98 711.004 470.964 708.99 468.48 708.99C465.994 708.99 463.979 711.004 463.979 713.49C463.979 715.975 465.994 717.989 468.48 717.989ZM490.48 717.989C492.965 717.989 494.979 715.975 494.979 713.49C494.979 711.004 492.965 708.99 490.48 708.99C487.994 708.99 485.98 711.004 485.98 713.49C485.98 715.975 487.994 717.989 490.48 717.989ZM516.979 713.49C516.979 715.975 514.965 717.989 512.479 717.989C509.994 717.989 507.979 715.975 507.979 713.49C507.979 711.004 509.994 708.99 512.479 708.99C514.965 708.99 516.979 711.004 516.979 713.49ZM534.48 717.989C536.965 717.989 538.98 715.975 538.98 713.49C538.98 711.004 536.965 708.99 534.48 708.99C531.995 708.99 529.979 711.004 529.979 713.49C529.979 715.975 531.995 717.989 534.48 717.989ZM472.98 735.489C472.98 737.974 470.964 739.989 468.48 739.989C465.994 739.989 463.979 737.974 463.979 735.489C463.979 733.004 465.994 730.989 468.48 730.989C470.964 730.989 472.98 733.004 472.98 735.489ZM494.979 735.489C494.979 737.974 492.965 739.989 490.48 739.989C487.994 739.989 485.98 737.974 485.98 735.489C485.98 733.004 487.994 730.989 490.48 730.989C492.965 730.989 494.979 733.004 494.979 735.489ZM512.479 739.989C514.965 739.989 516.979 737.974 516.979 735.489C516.979 733.004 514.965 730.989 512.479 730.989C509.994 730.989 507.979 733.004 507.979 735.489C507.979 737.974 509.994 739.989 512.479 739.989ZM538.98 735.489C538.98 737.974 536.965 739.989 534.48 739.989C531.995 739.989 529.979 737.974 529.979 735.489C529.979 733.004 531.995 730.989 534.48 730.989C536.965 730.989 538.98 733.004 538.98 735.489Z" fill="#FF9E2B"/>
</svg>
