<svg width="111" height="85" viewBox="0 0 111 85" fill="none" xmlns="http://www.w3.org/2000/svg">
<path d="M46 16.9999C30.4 3.79993 19.5 0.833263 16 0.999929C4.5 0.999929 0 6.5 0 12C0 16.4 4 19.1667 6 20C11.2 21.6 14.8333 25.6667 16 27.5C21.5 37 25 45.5 35.5 58C43.9 68 57 70.1667 62.5 70H74.5C82.5 70 87.5 75.3333 89 78C90.3333 80.3333 94.8 85 102 85C109.2 85 111 78.3333 111 75C111 63.4 101.667 57.5 97 56C91 54.5 76.6 48.8 67 38C57.4 27.2 49 19.5 46 16.9999Z" fill="#2DDAD6"/>
<path d="M43.0002 16C29.4002 5.20004 17.6668 3.16671 13.5002 3.50004C4.70017 3.50004 2.8335 5.83335 3.00017 7C3.00017 11.4 7.66683 14.5 10.0002 15.5C18.4002 19.5 25.5002 26.1667 28.0002 29C34.4002 35.4 35.6668 46.6667 35.5002 51.5C35.5002 57.5 39.8335 61.6667 42.0002 63C53.5002 70 65.5002 69 75.5002 69C83.5002 69 87.8335 73 89.0002 75C90.6668 78 95.6002 84 102 84C108.4 84 110 79.3333 110 77C110 64.6 103.334 61.1667 100 61C94.4002 61 87.6668 59.6667 85.0002 59C80.3335 58 69.2002 52.7 62.0002 39.5C54.8002 26.3 46.3335 18.3334 43.0002 16Z" fill="#2BFDFF"/>
</svg>
