<svg width="18" height="75" viewBox="0 0 18 75" fill="none" xmlns="http://www.w3.org/2000/svg">
<path d="M16.8756 61.1H11.2504V60H16.8756V61.1Z" fill="white"/>
<path fill-rule="evenodd" clip-rule="evenodd" d="M5.21452 60.0154C9.32097 60.0748 9.39977 64.0084 7.25426 65.0798C9.85076 66.0038 9.93744 70.9913 4.84991 70.9913H0V60.0154H5.21452ZM2.25008 66.6H4.79384C6.90662 66.6 7.04725 68.811 4.75656 68.811H2.25008V66.6ZM2.25008 62.2H4.70383C7.11817 62.2 6.81994 64.4 4.93781 64.4H2.25008V62.2Z" fill="white"/>
<path fill-rule="evenodd" clip-rule="evenodd" d="M13.8966 62.4969C16.2073 62.4969 17.6193 63.8027 17.9276 65.742C17.9849 66.1139 18.0085 66.6144 17.9973 67.3117H12.3057C12.1639 69.3731 14.5894 69.7406 15.4187 68.8H17.7948C17.4639 69.7515 16.2737 71 13.9696 71C11.6644 71 10.1254 69.7329 10.1254 66.8387C10.1254 63.9711 11.5395 62.4969 13.8966 62.4969ZM15.7539 65.8663H12.3585C12.6837 63.6916 15.6236 63.9798 15.7539 65.8663Z" fill="white"/>
<path d="M6.89467 3.55263C6.81572 2.36842 7.55783 0 11.1578 0H14V3.19737H11.9868C11.6316 3.19737 10.9211 3.41053 10.9211 4.26316V5.92105H14L13.6447 9H10.9211V18H6.89467V9H5V5.92105H6.89467V3.55263Z" fill="white"/>
<path d="M9 30.8125C10.5533 30.8125 11.8125 29.5533 11.8125 28C11.8125 26.4467 10.5533 25.1875 9 25.1875C7.4467 25.1875 6.1875 26.4467 6.1875 28C6.1875 29.5533 7.4467 30.8125 9 30.8125Z" fill="white"/>
<path fill-rule="evenodd" clip-rule="evenodd" d="M0 23.2188C0 20.8888 1.8888 19 4.21875 19H13.7812C16.1112 19 18 20.8888 18 23.2188V32.7812C18 35.1112 16.1112 37 13.7812 37H4.21875C1.8888 37 0 35.1112 0 32.7812V23.2188ZM9 32.5C11.4853 32.5 13.5 30.4853 13.5 28C13.5 25.5147 11.4853 23.5 9 23.5C6.51472 23.5 4.5 25.5147 4.5 28C4.5 30.4853 6.51472 32.5 9 32.5ZM14.625 23.7812C15.2463 23.7812 15.75 23.2776 15.75 22.6562C15.75 22.0349 15.2463 21.5312 14.625 21.5312C14.0037 21.5312 13.5 22.0349 13.5 22.6562C13.5 23.2776 14.0037 23.7812 14.625 23.7812Z" fill="white"/>
<path d="M9 38C4.029 38 0 42.0298 0 47C0 51.9702 4.029 56 9 56C13.971 56 18 51.9702 18 47C18 42.0298 13.971 38 9 38ZM16.4138 46.5807C14.4825 46.2642 12.7065 46.247 11.0865 46.526C10.9035 46.1038 10.7138 45.6822 10.5113 45.266C12.2438 44.516 13.635 43.4975 14.6722 42.2045C15.6847 43.4 16.32 44.9187 16.4138 46.5807ZM13.5322 41.1192C12.6285 42.2847 11.3813 43.2065 9.79275 43.8793C9.03075 42.4835 8.15925 41.1222 7.17675 39.8008C7.761 39.653 8.37 39.5652 9 39.5652C10.7063 39.5652 12.276 40.1495 13.5322 41.1192ZM5.64525 40.3745C6.6435 41.681 7.5285 43.028 8.298 44.4102C6.4755 44.9465 4.29975 45.2218 1.785 45.239C2.304 43.1128 3.73575 41.3442 5.64525 40.3745V40.3745ZM1.56525 47L1.575 46.808C4.46175 46.8043 6.95175 46.472 9.0375 45.8165C9.21225 46.1727 9.3795 46.5305 9.54 46.8905C7.005 47.6833 4.91625 49.307 3.28725 51.7505C2.21325 50.4612 1.56525 48.8053 1.56525 47V47ZM4.437 52.8575C5.91375 50.5415 7.7985 49.034 10.1355 48.3372C10.8315 50.1523 11.3423 52.0198 11.6678 53.9323C9.156 54.9005 6.453 54.4317 4.437 52.8575ZM13.1265 53.18C12.798 51.4152 12.3165 49.6903 11.6865 48.0073C13.0935 47.8085 14.6415 47.8602 16.3358 48.1542C16.008 50.2437 14.8148 52.0482 13.1265 53.18Z" fill="white"/>
</svg>
