<svg width="52" height="52" viewBox="0 0 52 52" fill="none" xmlns="http://www.w3.org/2000/svg">
<path d="M2 47L27 4L52 47H2Z" fill="#3EF8F4"/>
<path d="M28 40H15V42H28V40Z" fill="#41228E"/>
<path d="M8 23H6V25H8V23Z" fill="#41228E"/>
<path d="M30 23H37V25H30V23Z" fill="#41228E"/>
<path d="M28 23H26V25H28V23Z" fill="#41228E"/>
<path fill-rule="evenodd" clip-rule="evenodd" d="M33 4H16.5858L10 10.5858V11H9C7.34314 11 6 12.3431 6 14V20H3C1.34314 20 0 21.3431 0 23V35C0 36.6569 1.34314 38 3 38H10V47H33V38H40C41.6569 38 43 36.6569 43 35V23C43 21.3431 41.6569 20 40 20H37V14C37 12.3431 35.6569 11 34 11H33V4ZM12 45V38H31V45H12ZM12 36H31V33H12V36ZM33 33V36H40C40.5523 36 41 35.5523 41 35V28H2V35C2 35.5523 2.44771 36 3 36H10V33H8V31H35V33H33ZM31 11V6H18V11H31ZM16 11V7.41422L12.4142 11H16ZM31 13V20H12V13H31ZM10 13H9C8.44772 13 8 13.4477 8 14V20H10V13ZM3 22C2.44771 22 2 22.4477 2 23V26H41V23C41 22.4477 40.5523 22 40 22H3ZM35 20V14C35 13.4477 34.5523 13 34 13H33V20H35Z" fill="#41228E"/>
</svg>
