<svg width="52" height="52" viewBox="0 0 52 52" fill="none" xmlns="http://www.w3.org/2000/svg">
<path d="M50 27C50 40.2548 39.2548 51 26 51C12.7452 51 2 40.2548 2 27C2 13.7452 12.7452 3 26 3C39.2548 3 50 13.7452 50 27Z" fill="#3EF8F4"/>
<path d="M7 29H9V31H7V29Z" fill="#41228E"/>
<path d="M7 33H9V47H7V33Z" fill="#41228E"/>
<path fill-rule="evenodd" clip-rule="evenodd" d="M33.3706 1.77948C33.603 1.69041 33.861 1.69169 34.0917 1.78129C34.1962 1.82187 34.295 1.88056 34.3833 1.95717C34.4944 2.05318 34.5848 2.17388 34.6454 2.31261C34.6806 2.39325 34.7047 2.47747 34.7176 2.56296L35.922 9.84864L35.924 9.86364C36.1484 11.5335 35.5463 12.8121 34.706 13.6918C34.0961 14.3302 33.3651 14.7583 32.732 15.0124L30.9972 22H31.5C32.8807 22 34 23.1193 34 24.5C34 25.7095 33.1411 26.7184 32 26.95V48C32 49.6569 30.6569 51 29 51H6C4.34314 51 3 49.6569 3 48V26.95C1.85888 26.7184 0.999996 25.7095 0.999996 24.5C0.999996 23.1193 2.11929 22 3.5 22H3.65774L0.882595 12.4948C0.84135 12.3534 0.831798 12.2048 0.85464 12.0593L2.31213 2.77895C2.37223 2.39628 2.64793 2.08274 3.01976 1.97417C3.3916 1.86561 3.79269 1.98156 4.04925 2.27178L10.2711 9.3101C10.3686 9.42039 10.4406 9.55085 10.4818 9.69216L14 21.7423V2H24V19.7555L26.9737 13.0395C26.6294 12.4506 26.3145 11.6641 26.2244 10.7858C26.1001 9.5756 26.4087 8.19645 27.6099 7.01507L27.6207 7.00445L33.037 1.99113C33.1314 1.90057 33.2441 1.82785 33.3706 1.77948ZM3.5 24C3.22386 24 3 24.2239 3 24.5C3 24.7761 3.22386 25 3.5 25H31.5C31.7761 25 32 24.7761 32 24.5C32 24.2239 31.7761 24 31.5 24H3.5ZM22 22V20H19V18H22V16H19V14H22V12H19V10H22V8H19V6H22V4H16V22H22ZM30.6037 15.2847L28.9365 22H25.1935L28.4878 14.5598C28.7765 14.7209 29.1172 14.8752 29.5152 15.0115C29.9132 15.1479 30.2769 15.2349 30.6037 15.2847ZM11.9917 22H5.74124L3.36297 13.8541L9.12251 12.1725L11.9917 22ZM29.0022 8.451L33.0452 4.70882L33.9437 10.144C34.0716 11.1261 33.7358 11.812 33.2598 12.3103C32.751 12.8429 32.076 13.1583 31.6382 13.2737L31.5424 13.299L31.4943 13.3226L31.491 13.3231C31.4674 13.3273 31.3869 13.3416 31.2362 13.3381C31.0034 13.3326 30.6441 13.2842 30.1634 13.1195C29.6828 12.9548 29.3693 12.7728 29.182 12.6343C29.0608 12.5447 29.0059 12.484 28.9899 12.4662L28.9876 12.4638L28.9641 12.4157L28.9039 12.337C28.6289 11.9773 28.2891 11.3142 28.2139 10.5815C28.1435 9.89596 28.2989 9.14825 29.0022 8.451ZM2.90342 11.9048L8.46102 10.2822L3.95822 5.18852L2.90342 11.9048ZM5 27V48C5 48.5523 5.4477 49 6 49H29C29.5523 49 30 48.5523 30 48V27H5Z" fill="#41228E"/>
</svg>
