<svg width="52" height="52" viewBox="0 0 52 52" fill="none" xmlns="http://www.w3.org/2000/svg">
<path d="M12 2C12 0.895432 12.8954 0 14 0H50C51.1046 0 52 0.895431 52 2V50C52 51.1046 51.1046 52 50 52H14C12.8954 52 12 51.1046 12 50V2Z" fill="#3EF8F4"/>
<path fill-rule="evenodd" clip-rule="evenodd" d="M38 52H9C7.34315 52 6 50.6569 6 49V46H4C1.79086 46 0 44.2091 0 42C0 39.7909 1.79086 38 4 38H6V32H4C1.79086 32 0 30.2091 0 28C0 25.7909 1.79086 24 4 24H6V18H4C1.79086 18 0 16.2091 0 14C0 11.7909 1.79086 10 4 10H6V7C6 5.34315 7.34315 4 9 4H42C43.6569 4 45 5.34315 45 7V34.8586C46.8514 36.6735 48 39.2026 48 42C48 47.5228 43.5228 52 38 52ZM9 6H42C42.5523 6 43 6.44772 43 7V33.3378C41.5291 32.487 39.8214 32 38 32C32.4772 32 28 36.4772 28 42C28 45.2712 29.5707 48.1755 31.999 50H9C8.44772 50 8 49.5523 8 49V45.874C9.72523 45.4299 11 43.8638 11 42C11 40.1362 9.72523 38.5701 8 38.126V31.874C9.72523 31.4299 11 29.8638 11 28C11 26.1362 9.72523 24.5701 8 24.126V17.874C9.72523 17.4299 11 15.8638 11 14C11 12.1362 9.72523 10.5701 8 10.126V7C8 6.44772 8.44772 6 9 6ZM7 12H4C2.89543 12 2 12.8954 2 14C2 15.1046 2.89543 16 4 16H7C8.10457 16 9 15.1046 9 14C9 12.8954 8.10457 12 7 12ZM4 26H7C8.10457 26 9 26.8954 9 28C9 29.1046 8.10457 30 7 30H4C2.89543 30 2 29.1046 2 28C2 26.8954 2.89543 26 4 26ZM7 40H4C2.89543 40 2 40.8954 2 42C2 43.1046 2.89543 44 4 44H7C8.10457 44 9 43.1046 9 42C9 40.8954 8.10457 40 7 40ZM46 42C46 46.4183 42.4183 50 38 50C33.5817 50 30 46.4183 30 42C30 37.5817 33.5817 34 38 34C42.4183 34 46 37.5817 46 42Z" fill="#41228E"/>
<path d="M39 38H37V43H42V41H39V38Z" fill="#41228E"/>
<path d="M28 27H39V29H28V27Z" fill="#41228E"/>
<path d="M28 16H39V18H28V16Z" fill="#41228E"/>
<path fill-rule="evenodd" clip-rule="evenodd" d="M25.7071 14.2071L18.5 21.4142L13.2929 16.2071L14.7071 14.7929L18.5 18.5858L24.2929 12.7929L25.7071 14.2071Z" fill="#41228E"/>
<path fill-rule="evenodd" clip-rule="evenodd" d="M25.7072 25.2071L18.5001 32.4142L13.293 27.2071L14.7072 25.7928L18.5001 29.5857L24.293 23.7928L25.7072 25.2071Z" fill="#41228E"/>
<path fill-rule="evenodd" clip-rule="evenodd" d="M25.7072 36.2071L18.5001 43.4142L13.293 38.2071L14.7072 36.7928L18.5001 40.5857L24.293 34.7928L25.7072 36.2071Z" fill="#41228E"/>
</svg>
