<svg width="172" height="88" viewBox="0 0 172 88" fill="none" xmlns="http://www.w3.org/2000/svg">
<path fill-rule="evenodd" clip-rule="evenodd" d="M32.6352 6.70425C28.7966 11.0999 25.2111 18.6023 25.2111 31C25.2111 31.4474 25.2177 31.8883 25.2306 32.3228C28.0527 31.4949 30.9534 30.7651 33.8744 30.1241C37.238 29.3859 40.6315 28.7647 43.9666 28.2468C44.079 27.6703 44.1884 27.0999 44.2946 26.5364C45.4195 20.5656 46.1695 15.4086 46.1695 12C46.1695 6.76113 45.5418 4.00685 44.6812 2.56975C44.2616 1.86902 43.7916 1.49042 43.3097 1.27797C42.8171 1.06077 42.2735 1 41.6784 1C41.1723 1 39.8848 1.30213 38.2084 2.19184C36.5518 3.07106 34.5579 4.5025 32.6352 6.70425ZM45.0144 28.0872C45.1033 27.628 45.1904 27.1728 45.2753 26.7219C46.3998 20.7528 47.1675 15.5126 47.1675 12C47.1675 6.73887 46.5477 3.74315 45.537 2.05525C45.021 1.19348 44.3993 0.665826 43.7117 0.362655C43.0348 0.0642306 42.3309 0 41.6784 0C40.937 0 39.48 0.385372 37.7413 1.30816C35.9828 2.24144 33.891 3.7475 31.8841 6.04575C27.8632 10.6501 24.2131 18.3977 24.2131 31C24.2131 31.5486 24.2227 32.0879 24.2417 32.618C20.8954 33.634 17.6711 34.7913 14.6678 36.1059C8.85861 38.6487 3.84709 41.7926 0.387771 45.6666L0 46.1009L0.487258 46.4189C2.92808 48.0123 8.77468 49.8366 18.4479 50.353C21.7667 50.5302 25.5424 50.5538 29.7951 50.3598C32.1347 53.6226 34.9322 55.9426 37.6212 57.5041C37.0914 59.9621 36.6078 62.2855 36.1984 64.405C34.7022 72.1505 33.6985 77.9273 33.384 81.7717C33.2275 83.6855 33.2366 85.1713 33.4645 86.1948C33.5786 86.7072 33.7577 87.1526 34.041 87.4768C34.3412 87.8203 34.7352 88 35.1913 88C35.5091 88 35.7749 87.854 35.9814 87.6617C36.1839 87.4731 36.3539 87.2191 36.5008 86.9351C36.795 86.3662 37.0498 85.5711 37.2751 84.6224C37.7278 82.7166 38.089 80.0688 38.3703 77.0663C38.9085 71.322 39.1605 64.209 39.1819 58.3345C40.9775 59.2047 42.6726 59.7381 44.0853 59.9921L44.2616 59.0079C42.8298 58.7504 41.0529 58.1777 39.1631 57.2082L39.054 55.6107C39.4864 53.6356 39.9423 51.5891 40.4087 49.5032C42.6928 49.2451 45.0798 48.9312 47.5716 48.5554C47.5985 48.6172 47.6328 48.6818 47.6771 48.7416C47.745 48.8332 47.9041 49 48.1655 49C48.3698 49 48.5348 48.9025 48.6263 48.8401C48.7328 48.7674 48.836 48.674 48.9307 48.5779C49.0102 48.4973 49.0923 48.4058 49.1755 48.3073C49.8869 48.1944 50.6066 48.0766 51.3345 47.9537C51.6399 48.497 52.1707 49.2391 52.9334 49.8637C53.8178 50.5879 55.0305 51.1657 56.5579 51.0613C58.0781 50.9575 59.8331 50.183 61.8198 48.361C62.6528 47.597 63.5313 46.6446 64.4559 45.4714C65.7759 45.2356 67.0961 45.0144 68.4157 44.807C66.548 50.5354 65.3106 55.8391 64.6395 59.9187L65.562 60.2535C69.2732 53.9319 72.3819 48.5243 74.9838 43.8867C79.6543 43.3097 84.3044 42.8964 88.9053 42.6214C88.9724 42.7199 89.0405 42.8095 89.1092 42.8907C89.3524 43.1779 89.6265 43.3857 89.9126 43.4717C90.1059 43.5521 90.3304 43.5627 90.5496 43.5352C90.7997 43.5039 91.0891 43.4177 91.4152 43.266C91.7935 43.09 92.2342 42.8198 92.7377 42.4233C97.314 42.2231 101.833 42.1544 106.265 42.1915C106.612 42.8185 107.183 43.5 108.047 43.5C108.46 43.5 108.932 43.3347 109.379 43.1247C109.842 42.9078 110.341 42.6128 110.828 42.2933C110.841 42.2848 110.853 42.2763 110.866 42.2677C118.168 42.4478 125.199 42.8987 131.826 43.501C133.126 43.801 134.68 44 136.49 44H136.518L136.545 43.9969C136.598 43.9911 136.653 43.9849 136.71 43.9784C149.52 45.3168 160.582 47.1397 168.816 48.4968C169.871 48.6707 170.88 48.8369 171.84 48.9935L172 48.0065C171.035 47.8491 170.021 47.6819 168.959 47.5069C161.598 46.2934 151.958 44.7045 140.817 43.4228C141.693 43.2826 142.511 43.1321 143.098 42.9851C145.064 42.4927 148.515 42 150.462 42C151.428 42 154.52 42.2465 157.892 42.6219C161.263 42.9972 164.85 43.4943 166.809 43.9851L167.189 43.0726C158.914 38.039 132.844 28.6822 89.2819 26.4751C93.8819 20.0807 96.6855 15.7955 98.3922 12.8808C100.779 8.8042 101.061 7.34522 101.061 6.5C101.061 5.8059 100.866 5.29871 100.553 4.9603C100.248 4.62937 99.8637 4.5 99.5635 4.5H99.4783L99.3979 4.52834C95.1261 6.03436 91.2946 8.48759 87.8761 11.569C87.6808 10.3695 87.3038 9.09597 86.5764 7.92353C85.0247 5.42231 81.9653 3.5 76.11 3.5C71.3642 3.5 67.5491 5.56977 64.7224 8.12902C61.9011 10.6835 60.0392 13.7467 59.1821 15.8077L60.1034 16.1923C60.9097 14.2533 62.6905 11.3165 65.3915 8.87098C68.0873 6.43024 71.6741 4.5 76.11 4.5C81.732 4.5 84.4112 6.32769 85.7288 8.45147C86.5062 9.70461 86.8391 11.1016 86.9816 12.3984C82.9319 16.2593 79.4838 20.9993 76.5893 26.0527C74.4693 26.0179 72.3135 26 70.1219 26L70.1172 26C63.7685 26.0606 54.6772 26.6433 45.0144 28.0872ZM43.7613 29.291C40.5611 29.7945 37.3104 30.3937 34.088 31.1009C31.1024 31.7561 28.1436 32.5035 25.2735 33.3525C25.6451 40.2398 27.6393 45.4576 30.296 49.3349C33.1736 49.1923 36.2697 48.9499 39.5906 48.588C39.6637 48.2612 39.737 47.9336 39.8105 47.6053C39.9464 46.9981 40.0828 46.3885 40.2194 45.7772C41.4616 40.2206 42.7219 34.5297 43.7613 29.291ZM40.6397 48.4705C40.6763 48.4663 40.7129 48.462 40.7496 48.4578C40.7219 48.4166 40.6957 48.3739 40.6711 48.33C40.6606 48.3768 40.6502 48.4237 40.6397 48.4705ZM41.2051 45.9431C42.4712 40.279 43.7584 34.464 44.8107 29.129C54.5508 27.6545 63.7383 27.0611 70.1243 27C72.1231 27 74.092 27.015 76.0308 27.044C75.5925 27.8346 75.1675 28.6319 74.7557 29.4337C72.3243 34.1667 70.3401 39.0757 68.7693 43.74C67.6265 43.9165 66.4832 44.1033 65.3398 44.3009C66.3599 42.8941 67.4328 41.223 68.5592 39.2481L67.6926 38.7519C66.3415 41.1212 65.0783 43.0293 63.904 44.5547C62.4497 44.8175 60.9955 45.0979 59.5424 45.3967C56.8914 45.9418 54.337 46.4234 51.8775 46.8468C51.555 46.2748 51.2562 45.9065 50.9776 45.6914C50.6433 45.4333 50.1574 45.297 49.8087 45.6464L49.7653 45.69L49.7337 45.7428C49.4894 46.1506 49.0995 46.7607 48.7258 47.264C48.6964 47.3036 48.6674 47.3421 48.6388 47.3796C48.5407 47.395 48.4429 47.4103 48.3452 47.4254C48.2923 46.9803 48.2543 46.4092 48.2274 45.7908C48.1656 44.3657 48.1655 42.7512 48.1655 42C48.1655 41.3059 47.9711 40.7987 47.6584 40.4603C47.3526 40.1294 46.9687 40 46.6685 40C45.7961 40 44.1358 40.6392 43.6841 42.9019C43.4385 44.1327 43.072 45.4742 42.6516 46.4971C42.4403 47.0115 42.2255 47.4197 42.0211 47.6906C41.9193 47.8256 41.8325 47.9096 41.7653 47.9567C41.733 47.9794 41.7097 47.9904 41.6955 47.9956C41.6886 47.9981 41.684 47.9991 41.6816 47.9996L41.679 48M47.3581 47.5764C47.2983 47.0853 47.258 46.4716 47.2304 45.8342C47.1675 44.3858 47.1675 42.7524 47.1675 42.0024V42C47.1675 41.4941 47.0292 41.2513 46.9261 41.1397C46.8161 41.0206 46.701 41 46.6685 41C46.2102 41 45.0095 41.3608 44.6628 43.0981C44.4094 44.3673 44.0274 45.7758 43.5745 46.8779C43.3681 47.3801 43.1384 47.8402 42.8868 48.1981C44.3374 48.0134 45.8276 47.8067 47.3581 47.5764ZM41.679 48C41.6774 48 41.6757 48 41.6743 47.9998C41.6723 47.9995 41.67 47.9984 41.6654 47.9957C41.6538 47.9886 41.6273 47.9684 41.5912 47.9189C41.5147 47.8142 41.4372 47.6374 41.372 47.3916C41.2486 46.9258 41.2049 46.3507 41.2051 45.9431M50.0185 47.1587C50.2845 47.1152 50.5518 47.0711 50.8201 47.0262C50.6568 46.7745 50.523 46.62 50.4232 46.5296C50.3035 46.7225 50.1654 46.9384 50.0185 47.1587ZM52.3923 47.7725C52.6604 48.1827 53.0523 48.6696 53.565 49.0894C54.3024 49.6933 55.2728 50.1468 56.49 50.0637C57.7143 49.98 59.2652 49.3482 61.1459 47.6234C61.7153 47.1011 62.3125 46.4809 62.9372 45.7492C61.8721 45.9485 60.8073 46.1575 59.7431 46.3763C57.2059 46.898 54.7561 47.3619 52.3923 47.7725ZM69.5224 44.6364C67.9915 49.2629 66.8732 53.6264 66.1344 57.3003C69.0555 52.3005 71.5765 47.9082 73.7509 44.0427C72.3427 44.2253 70.933 44.423 69.5224 44.6364ZM74.3603 42.957C72.8687 43.1449 71.3751 43.3495 69.8805 43.5716C71.4096 39.0979 73.3207 34.4123 75.643 29.8913C76.1321 28.9393 76.639 27.9953 77.164 27.0627C79.0516 27.0965 80.9105 27.1438 82.7405 27.2036C80.8437 31.0872 78.1544 36.182 74.3603 42.957ZM75.5888 42.8059C79.8861 42.2904 84.1646 41.9119 88.4019 41.6507C88.3909 41.6233 88.3801 41.5956 88.3693 41.5676C87.924 40.4121 87.5873 38.6374 87.5873 36C87.5873 34.74 87.3531 34.0532 87.0741 33.7056C86.827 33.3978 86.489 33.2899 86.0199 33.3574C85.5279 33.4282 84.9451 33.691 84.3472 34.0731C83.7691 34.4426 83.2125 34.9007 82.7615 35.3328C81.5855 36.9003 80.3338 38.5555 79.0017 40.3035L78.2085 39.6965C79.5484 37.9385 80.8065 36.2746 81.9879 34.6996C84.005 32.0106 85.7981 29.5812 87.3919 27.3854C86.218 27.332 85.0316 27.2838 83.8326 27.241C81.9744 31.0741 79.3307 36.1056 75.5888 42.8059ZM84.3047 26.2575C85.5816 26.3046 86.8443 26.3578 88.0929 26.4169C92.9084 19.7446 95.7993 15.3327 97.5313 12.3747C99.9066 8.31815 100.062 7.05883 100.062 6.5C100.062 5.9941 99.9242 5.75129 99.8211 5.6397C99.7481 5.56073 99.6729 5.52506 99.6211 5.50999C95.3176 7.04659 91.4593 9.5867 88.0216 12.7912C88.0863 13.6098 88.0863 14.3569 88.0863 14.9653V15C88.0863 16.8694 87.4179 19.7039 84.3047 26.2575ZM87.0719 13.7037C83.4935 17.2455 80.3897 21.5052 77.7305 26.0731C79.5871 26.109 81.4159 26.1579 83.2169 26.219C83.2769 26.0938 83.3359 25.97 83.3941 25.8475C86.5104 19.2903 87.0882 16.6287 87.0882 15C87.0882 14.6052 87.0877 14.1684 87.0719 13.7037ZM88.5845 27.4416C87.4043 29.0726 86.1124 30.8345 84.6983 32.7384C85.0883 32.558 85.4876 32.4238 85.8781 32.3676C86.5963 32.2642 87.327 32.4252 87.8517 33.0788C88.3445 33.6926 88.5853 34.66 88.5853 36C88.5853 38.5626 88.9139 40.2046 89.3003 41.2074C89.3541 41.3471 89.4087 41.4735 89.4633 41.5876C90.4325 41.5322 91.3994 41.4829 92.3638 41.4394C92.6269 41.2185 92.9131 40.9565 93.2225 40.6464C94.4902 39.3763 96.1383 37.9783 97.7934 36.894C99.4234 35.8261 101.152 35 102.558 35C103.826 35 104.746 35.9481 105.352 36.9233C105.971 37.9214 106.363 39.1031 106.538 39.8915L106.541 39.9046L106.543 39.9178C106.601 40.2661 106.72 40.7433 106.901 41.1979C108.132 41.2109 109.356 41.2321 110.573 41.2607C111.395 40.6994 112.188 40.0699 112.698 39.6321C113.497 38.8457 115.961 37.5 120.023 37.5C122.567 37.5 124.033 37.8821 125.133 38.5017C125.676 38.8079 126.112 39.1623 126.525 39.5204C126.62 39.6028 126.713 39.6849 126.806 39.7666C127.123 40.0453 127.436 40.3208 127.807 40.6L127.836 40.6213L127.861 40.6464C128.324 41.1105 129.681 41.9688 131.981 42.5107C133.581 42.6564 135.157 42.8108 136.707 42.9722C138.312 42.7872 141.386 42.3833 142.856 42.0149C144.883 41.5073 148.417 41 150.462 41C151.492 41 154.638 41.2535 158.003 41.6281C159.981 41.8483 162.057 42.1129 163.846 42.397C153.389 37.2527 128.243 29.3782 88.5845 27.4416ZM128.321 42.1968C127.808 41.905 127.428 41.6201 127.181 41.3795C126.787 41.0815 126.445 40.7805 126.132 40.5043C126.043 40.4262 125.956 40.35 125.872 40.2765C125.474 39.9314 125.098 39.6296 124.644 39.3733C123.747 38.8679 122.469 38.5 120.023 38.5C116.125 38.5 113.938 39.8045 113.39 40.3536L113.376 40.3671L113.361 40.3796C113.06 40.6389 112.662 40.9635 112.216 41.3041C117.767 41.4662 123.155 41.7814 128.321 42.1968ZM108.94 42.2267C108.457 42.218 107.973 42.2106 107.487 42.2044C107.679 42.4078 107.869 42.5 108.047 42.5C108.229 42.5 108.53 42.4175 108.94 42.2267ZM105.836 41.1886C105.702 40.7862 105.612 40.399 105.561 40.096C105.401 39.3844 105.046 38.3234 104.504 37.4517C103.945 36.5519 103.285 36 102.558 36C101.468 36 99.9531 36.6739 98.3395 37.731C96.7511 38.7717 95.1556 40.1237 93.9282 41.3536C93.9212 41.3606 93.9141 41.3677 93.9071 41.3747C97.9369 41.2183 101.92 41.1621 105.836 41.1886ZM90.4955 42.5318C90.4256 42.5355 90.3558 42.5392 90.2859 42.543L90.2913 42.5457C90.3008 42.5472 90.3418 42.5535 90.4258 42.5429C90.4472 42.5403 90.4704 42.5366 90.4955 42.5318ZM39.3601 49.6186C36.394 49.9362 33.6058 50.1587 30.9913 50.3001C33.0819 53.0623 35.5048 55.0732 37.8439 56.4751C37.9165 56.1411 37.9898 55.8048 38.0639 55.4664C38.4781 53.5734 38.9141 51.6143 39.3601 49.6186ZM38.175 59.6911C37.8104 61.4171 37.4747 63.0604 37.1782 64.595C35.6803 72.3495 34.688 78.0727 34.3787 81.8533C34.2234 83.752 34.2455 85.11 34.4386 85.977C34.535 86.41 34.6639 86.6716 34.7919 86.8181C34.903 86.9453 35.0236 87 35.1913 87C35.1918 87 35.1943 87.0001 35.1997 86.9986C35.2031 86.9976 35.2076 86.996 35.2136 86.9933C35.2307 86.9855 35.2606 86.9677 35.302 86.9292C35.3882 86.8489 35.4955 86.7054 35.6147 86.4749C35.8526 86.0149 36.0851 85.3134 36.3042 84.3909C36.7404 82.5543 37.0966 79.9619 37.3766 76.9728C37.8705 71.702 38.1226 65.2575 38.175 59.6911ZM29.1304 49.3877C26.5785 45.4715 24.6884 40.3152 24.2907 33.6483C21.063 34.6366 17.9585 35.7567 15.0673 37.0223C9.55893 39.4334 4.85261 42.3606 1.54129 45.8861C4.0468 47.2726 9.54489 48.8763 18.501 49.3544C21.6238 49.5212 25.1612 49.5507 29.1304 49.3877Z" fill="black"/>
</svg>
