<svg width="75" height="30" viewBox="0 0 75 30" fill="none" xmlns="http://www.w3.org/2000/svg">
<path d="M0 0V30H5.03356V21L6.54362 19L11.5772 30H16.1074L11.0738 19V15.5L16.1074 8H11.5772L5.03356 17V0H0Z" fill="white"/>
<path d="M23.1544 8H18.1208V30H23.1544V15.5C24.3624 12.7 27.6846 12.6667 29.1946 13V8H28.1879C26.1745 8 23.9933 10.3333 23.1544 11.5V8Z" fill="white"/>
<path fill-rule="evenodd" clip-rule="evenodd" d="M37.7517 8C34.1377 8 31.2081 10.9101 31.2081 14.5V23.5C31.2081 27.0899 34.1377 30 37.7517 30C41.3656 30 44.2953 27.0898 44.2953 23.5V14.5C44.2953 10.9101 41.3656 8 37.7517 8ZM37.7517 11C38.5857 11 39.2617 11.7163 39.2617 12.6V25.4C39.2617 26.2837 38.5857 27 37.7517 27C36.9177 27 36.2416 26.2837 36.2416 25.4V12.6C36.2416 11.7163 36.9177 11 37.7517 11Z" fill="white"/>
<path d="M53.8591 11C54.6644 11 56.208 13.3333 56.8792 14.5L59.396 13.5C59.396 12.5 57.8859 8 53.3557 8C48.8255 8 47.3154 11 47.3154 13.5C47.3154 15.5 48.6577 17 49.3289 17.5L53.8591 22C55.0671 23.2 55.3691 24.1667 55.3691 24.5C55.5369 25.1667 55.3691 26.5 53.3557 26.5C51.3423 26.5 50.5034 24.1667 50.3356 23L47.3154 24V25C47.3154 27 49.8322 30 53.8591 30C57.8859 30 59.8993 27.5 59.8993 24.5C59.8993 22.1 58.557 20.5 57.8859 20L54.3624 17C53.5235 16.3333 51.8456 14.6 51.8456 13C51.8456 11 52.8523 11 53.8591 11Z" fill="white"/>
<path d="M71.9799 14.5C71.3087 13.3333 69.7651 11 68.9597 11C67.953 11 66.9463 11 66.9463 13C66.9463 14.6 68.6242 16.3333 69.4631 17L72.9866 20C73.6577 20.5 75 22.1 75 24.5C75 27.5 72.9866 30 68.9597 30C64.9329 30 62.4161 27 62.4161 25V24L65.4362 23C65.604 24.1667 66.443 26.5 68.4564 26.5C70.4698 26.5 70.6376 25.1667 70.4698 24.5C70.4698 24.1667 70.1678 23.2 68.9597 22L64.4295 17.5C63.7584 17 62.4161 15.5 62.4161 13.5C62.4161 11 63.9262 8 68.4564 8C72.9866 8 74.4966 12.5 74.4966 13.5L71.9799 14.5Z" fill="white"/>
</svg>
