<svg width="1600" height="502" viewBox="0 0 1600 502" fill="none" xmlns="http://www.w3.org/2000/svg">
<g clip-path="url(#clip0)">
<rect width="1600" height="502" fill="white"/>
<rect width="1600" height="502" fill="#42228F"/>
<path d="M186.5 58C179.7 32.8 166 8.83333 160 0H485.5C641.5 33.2 866.167 42.5 959 43C1185 43 1225.83 14.3333 1334 0H1475C1470.5 3.5 1457 14 1445 21.5C1433 29 1413 37.5 1413 51C1413 64.5 1434.5 76.5 1437.5 79L1437.61 79.0911C1441.08 81.9723 1466.2 102.853 1440 134C1413.5 165.5 1381 162.5 1334 170.5C1296.4 176.9 1280.33 196.5 1277 205.5L1285 224L1347 307C1340.5 341.5 1299 361 1273.5 361C1248 361 1226.5 351 1163.5 325.5C1113.1 305.1 1061.17 300.667 1041.5 301C1034 301.167 1017.6 302 1012 304C1005 306.5 987.5 314.5 1001.5 349.5C1015.5 384.5 1033 439.5 1033 462.5C1033 480.9 1024.33 496.5 1020 502H924.5C913.667 496.5 879 472.4 827 420C762 354.5 731.5 333 699 333C673 333 656.167 356.667 651 368.5C636 400 619 467 574 467C530 467 480 398.333 460.5 364C375.5 208.5 353.5 199.5 339.5 199.5C325.5 199.5 309.5 212 305.5 229C302.3 242.6 294.167 246 290.5 246C233 246 195 89.5 186.5 58Z" fill="#35197F"/>
<path d="M73.5 110C75.9853 110 78 107.985 78 105.5C78 103.015 75.9853 101 73.5 101C71.0147 101 69 103.015 69 105.5C69 107.985 71.0147 110 73.5 110Z" fill="#FF9F2E"/>
<path d="M73.5 133C75.9853 133 78 130.985 78 128.5C78 126.015 75.9853 124 73.5 124C71.0147 124 69 126.015 69 128.5C69 130.985 71.0147 133 73.5 133Z" fill="#FF9F2E"/>
<path d="M99 105.5C99 107.985 96.9853 110 94.5 110C92.0147 110 90 107.985 90 105.5C90 103.015 92.0147 101 94.5 101C96.9853 101 99 103.015 99 105.5Z" fill="#FF9F2E"/>
<path d="M99 128.5C99 130.985 96.9853 133 94.5 133C92.0147 133 90 130.985 90 128.5C90 126.015 92.0147 124 94.5 124C96.9853 124 99 126.015 99 128.5Z" fill="#FF9F2E"/>
<path d="M115.5 110C117.985 110 120 107.985 120 105.5C120 103.015 117.985 101 115.5 101C113.015 101 111 103.015 111 105.5C111 107.985 113.015 110 115.5 110Z" fill="#FF9F2E"/>
<path d="M115.5 133C117.985 133 120 130.985 120 128.5C120 126.015 117.985 124 115.5 124C113.015 124 111 126.015 111 128.5C111 130.985 113.015 133 115.5 133Z" fill="#FF9F2E"/>
<path d="M136.5 110C138.985 110 141 107.985 141 105.5C141 103.015 138.985 101 136.5 101C134.015 101 132 103.015 132 105.5C132 107.985 134.015 110 136.5 110Z" fill="#FF9F2E"/>
<path d="M136.5 133C138.985 133 141 130.985 141 128.5C141 126.015 138.985 124 136.5 124C134.015 124 132 126.015 132 128.5C132 130.985 134.015 133 136.5 133Z" fill="#FF9F2E"/>
<path d="M192 304C192 289.6 178.667 286.667 172 287C154.5 287 138.599 302.682 127.5 314.5C100 342.5 96 374.144 96 382C96 393.5 104 410 116 410C128 410 144 397.5 149.5 382C155 366.5 171.5 331.5 182 322C190.4 314.4 192.167 306.833 192 304Z" fill="#FE744F"/>
<path d="M116.504 409.993C119.619 376.324 127.128 353.765 136.616 337.118C146.67 319.476 159.001 308.367 171.001 297.617C171.618 297.065 171.67 296.116 171.117 295.499C170.564 294.882 169.616 294.83 168.999 295.383C156.999 306.133 144.33 317.524 134.009 335.632C124.26 352.738 116.655 375.743 113.513 409.76C114.321 409.917 115.15 410 116 410C116.167 410 116.335 409.998 116.504 409.993Z" fill="#D96149"/>
<path d="M1329 202C1315.8 191.6 1298.5 189 1291.5 189C1260.3 189 1253.5 228 1254 247.5C1254 261.532 1262.18 275.019 1274 284C1290.4 296.46 1304 296.5 1319 305C1328 309.5 1332.67 322.333 1334 328.5C1342 358.5 1358 375.5 1375 387C1392 398.5 1412 399 1419.5 399C1427 399 1435.5 397 1439.5 395C1443.5 393 1451 389 1462 389C1473 389 1482 394.5 1488.5 399C1495 403.5 1503 412 1522 412C1541 412 1550 404.5 1558 396.5C1566 388.5 1576 387 1585 387C1592.2 387 1598 389 1600 390V355L1562 361.5C1545 342.5 1505.8 299.1 1485 277.5C1459 250.5 1436.5 245 1424 245C1414 245 1399.17 251 1393 254C1367 254 1351.5 231.5 1347.5 224.5C1343.5 217.5 1343.5 213 1329 202Z" fill="#16E3E0"/>
<path fill-rule="evenodd" clip-rule="evenodd" d="M1600 341C1575.17 333 1520.8 315.1 1502 307.5C1478.5 298 1468 288.5 1463 281C1458 273.5 1440 249 1408 249C1404.83 249.167 1396.7 250.3 1389.5 253.5C1381.3 257.143 1376.84 257.053 1374.6 257.008C1374.38 257.004 1374.18 257 1374 257C1372 257 1349.5 256.5 1337.5 233.5C1335.33 229.5 1330.4 219.2 1328 210C1325 198.5 1309.5 189 1291 189C1272.5 189 1255 205.5 1255 240C1255 274.5 1288 286 1294 287C1300 288 1334 294.5 1342 313C1343.67 317.167 1347.1 328.7 1347.5 341.5C1348 357.5 1357 376.5 1375.5 386.5C1380.33 389 1392.4 394 1402 394C1414 394 1425.5 388 1433 384C1440.5 380 1450 375 1463 375C1476 375 1485 381 1498 397C1511 413 1525 409 1527.5 408C1530 407 1544.5 400 1558.5 386C1572.5 372 1581 369 1590.5 369C1592.17 369 1596.4 369.4 1600 371V341ZM1314.58 250.946C1347.4 277.831 1410.08 329.175 1580 368L1575 370C1512 359.333 1370 319.2 1306 244C1308.64 246.075 1311.48 248.401 1314.58 250.946Z" fill="#3EF8F3"/>
<path d="M674 212.5C674 227.7 661.333 231.167 655 231C655 231 647.5 231 638 226C627.5 220 623 218 596 215C569 212 549.5 199 533 187.5C519.8 178.3 515.5 166.667 515 162C515 158.8 517 158 518 158C522 158 526 163 533 168C540 173 567 193 590.5 193C614 193 626 173 634 144.5C642 116 665.5 116 668.5 116C671.5 116 674 116.5 676.5 117C679 117.5 697 122.5 701 99.5C705 76.5 722.5 75 725.5 75C728.5 75 731.5 75.5 734 76.5C736 77.3 739.5 77.8333 741 78C746.5 78 750 78 760 61C768 47.4 778.667 44 783 44C792 44 793 49.5 793 53C793 55.8 791.667 60.1667 791 62C789.4 66.8 789 72.3333 789 74.5C789 78 789 80.5 794 87C799 93.5 800 99 800 103C800 106.2 799 112 798.5 114.5C797 121.5 791.5 130.5 773.5 136C758.5 141.5 761 151 761 169C761 187 746.5 195.5 737 199C727.5 202.5 717 202 706 200.5C697.2 199.3 690.333 199 688 199C676 199 673.667 208 674 212.5Z" fill="#FF9E2B"/>
<path d="M782.921 44.0004C782.026 44.0087 780.872 44.1589 779.534 44.508C750.115 150.753 675.649 188.856 629.5 201C730.994 181.829 772.729 93.4481 782.921 44.0004Z" fill="#D77E16"/>
</g>
<defs>
<clipPath id="clip0">
<rect width="1600" height="502" fill="white"/>
</clipPath>
</defs>
</svg>
