<svg width="75" height="53" viewBox="0 0 75 53" fill="none" xmlns="http://www.w3.org/2000/svg">
<path d="M9 4.5C9 6.98528 6.98528 9 4.5 9C2.01472 9 0 6.98528 0 4.5C0 2.01472 2.01472 0 4.5 0C6.98528 0 9 2.01472 9 4.5Z" fill="#3EF8F4"/>
<path d="M9 26.5C9 28.9853 6.98528 31 4.5 31C2.01472 31 0 28.9853 0 26.5C0 24.0147 2.01472 22 4.5 22C6.98528 22 9 24.0147 9 26.5Z" fill="#3EF8F4"/>
<path d="M9 48.5C9 50.9853 6.98528 53 4.5 53C2.01472 53 0 50.9853 0 48.5C0 46.0147 2.01472 44 4.5 44C6.98528 44 9 46.0147 9 48.5Z" fill="#3EF8F4"/>
<path d="M31 4.5C31 6.98528 28.9853 9 26.5 9C24.0147 9 22 6.98528 22 4.5C22 2.01472 24.0147 0 26.5 0C28.9853 0 31 2.01472 31 4.5Z" fill="#3EF8F4"/>
<path d="M31 26.5C31 28.9853 28.9853 31 26.5 31C24.0147 31 22 28.9853 22 26.5C22 24.0147 24.0147 22 26.5 22C28.9853 22 31 24.0147 31 26.5Z" fill="#3EF8F4"/>
<path d="M31 48.5C31 50.9853 28.9853 53 26.5 53C24.0147 53 22 50.9853 22 48.5C22 46.0147 24.0147 44 26.5 44C28.9853 44 31 46.0147 31 48.5Z" fill="#3EF8F4"/>
<path d="M53 4.5C53 6.98528 50.9853 9 48.5 9C46.0147 9 44 6.98528 44 4.5C44 2.01472 46.0147 0 48.5 0C50.9853 0 53 2.01472 53 4.5Z" fill="#3EF8F4"/>
<path d="M53 26.5C53 28.9853 50.9853 31 48.5 31C46.0147 31 44 28.9853 44 26.5C44 24.0147 46.0147 22 48.5 22C50.9853 22 53 24.0147 53 26.5Z" fill="#3EF8F4"/>
<path d="M53 48.5C53 50.9853 50.9853 53 48.5 53C46.0147 53 44 50.9853 44 48.5C44 46.0147 46.0147 44 48.5 44C50.9853 44 53 46.0147 53 48.5Z" fill="#3EF8F4"/>
<path d="M75 4.5C75 6.98528 72.9853 9 70.5 9C68.0147 9 66 6.98528 66 4.5C66 2.01472 68.0147 0 70.5 0C72.9853 0 75 2.01472 75 4.5Z" fill="#3EF8F4"/>
<path d="M75 26.5C75 28.9853 72.9853 31 70.5 31C68.0147 31 66 28.9853 66 26.5C66 24.0147 68.0147 22 70.5 22C72.9853 22 75 24.0147 75 26.5Z" fill="#3EF8F4"/>
<path d="M75 48.5C75 50.9853 72.9853 53 70.5 53C68.0147 53 66 50.9853 66 48.5C66 46.0147 68.0147 44 70.5 44C72.9853 44 75 46.0147 75 48.5Z" fill="#3EF8F4"/>
</svg>
