<svg width="285" height="187" viewBox="0 0 285 187" fill="none" xmlns="http://www.w3.org/2000/svg">
<path d="M159 168.495C159 183.694 146.333 187.161 140 186.994C140 186.994 132.5 186.994 123 181.995C112.5 175.995 108 173.995 81 170.995C54 167.995 34.5 154.995 18 143.496C4.8 134.296 0.5 122.663 0 117.996C0 114.797 2 113.997 3 113.997C7 113.997 11 118.996 18 123.996C25 128.996 52 148.995 75.5 148.995C99 148.995 111 128.996 119 100.497C127 71.9978 150.5 71.9978 153.5 71.9978C156.5 71.9978 159 72.4978 161.5 72.9978C164 73.4978 182 78.4976 186 55.4983C190 32.499 207.5 30.9991 210.5 30.9991C213.5 30.9991 216.5 31.499 219 32.499C221 33.299 224.5 33.8323 226 33.999C231.5 33.999 235 33.999 245 16.9995C253 3.3999 263.667 0 268 0C277 0 278 5.49983 278 8.99973C278 11.7996 276.667 16.1662 276 17.9995C274.4 22.7993 274 28.3325 274 30.4991C274 33.999 274 36.4989 279 42.9987C284 49.4985 285 54.9983 285 58.9982C285 62.1981 284 67.9979 283.5 70.4979C282 77.4977 276.5 86.4974 258.5 91.9972C243.5 97.4971 246 106.997 246 124.996C246 142.996 231.5 151.495 222 154.995C212.5 158.495 202 157.995 191 156.495C182.2 155.295 175.333 154.995 173 154.995C161 154.995 158.667 163.995 159 168.495Z" fill="#FF9E2B"/>
<path d="M267.921 0.000366211C267.026 0.00870261 265.872 0.158925 264.534 0.507975C235.115 106.75 160.649 144.851 114.5 156.995C215.994 137.825 257.729 49.4466 267.921 0.000366211Z" fill="#D77E16"/>
</svg>
