<svg width="244" height="217" viewBox="0 0 244 217" fill="none" xmlns="http://www.w3.org/2000/svg">
<path d="M37.525 0C44.525 0 61.825 2.60321 75.025 13.016C86.672 21.8627 88.9637 26.5103 91.4876 31.629C92.1059 32.8828 92.738 34.1649 93.525 35.5438C97.525 42.5525 113.025 65.0802 139.025 65.0802C145.192 62.0765 160.025 56.0691 170.025 56.0691C182.525 56.0691 205.025 61.5759 231.025 88.6092C234.82 92.5548 239.227 97.2268 244 102.344V217C241.503 215.484 239.393 213.885 237.488 212.442C236.449 211.656 235.471 210.915 234.525 210.259C228.025 205.754 219.025 200.247 208.025 200.247C197.468 200.247 190.134 203.936 186.025 206.003C185.853 206.09 185.686 206.174 185.525 206.254C181.525 208.257 173.025 210.259 165.525 210.259C158.025 210.259 138.025 209.759 121.025 198.244C104.025 186.73 88.025 169.709 80.025 139.672C78.6917 133.498 74.025 120.649 65.025 116.143C58.8663 112.649 52.9435 110.583 46.966 108.497C38.3849 105.504 29.691 102.471 20.025 95.1173C8.20552 86.1256 0.0250364 72.6212 0.0250364 58.5722C-0.474964 39.0481 6.32504 0 37.525 0Z" fill="#16E3E0"/>
<path d="M244 116.819C223.305 107.886 213.73 99.0575 209.025 92C204.025 84.5 186.025 60 154.025 60C150.858 60.1667 142.725 61.3 135.525 64.5C127.328 68.143 122.864 68.0534 120.622 68.0084C120.402 68.004 120.203 68 120.025 68C118.025 68 95.5249 67.5 83.5249 44.5C81.3582 40.5 76.4249 30.2 74.0249 21C71.0249 9.5 55.5249 0 37.0249 0C18.5249 0 1.0249 16.5 1.0249 51C1.0249 85.5 34.0249 97 40.0249 98C46.0249 99 80.0249 105.5 88.0249 124C89.6916 128.167 93.1249 139.7 93.5249 152.5C94.0249 168.5 103.025 187.5 121.525 197.5C126.358 200 138.425 205 148.025 205C160.025 205 171.525 199 179.025 195C186.525 191 196.025 186 209.025 186C222.017 186 231.013 191.992 244 207.969V162.316C177.208 141.963 96.1109 106.801 52.0249 55C54.6621 57.0752 57.5012 59.4008 60.6078 61.9456C87.5016 83.9758 134.442 122.427 244 156.957V116.819Z" fill="#3EF8F3"/>
</svg>
