<svg width="1600" height="502" viewBox="0 0 1600 502" fill="none" xmlns="http://www.w3.org/2000/svg">
<rect width="1600" height="502" fill="white"/>
<rect width="1600" height="502" fill="#42228F"/>
<path d="M248 502C249.667 458 261.8 370 297 370C299.5 370 306.1 372.8 312.5 384C320.5 398 333.5 399 337 399C340.5 399 377 396.5 406 256.5C414 221 440.9 150 484.5 150C495.5 150.167 521.8 157.8 539 187C560.5 223.5 574.5 235 592 235C609.5 235 653.5 207 686.5 145C719.5 83 764 39.5 805 39.5C846 39.5 843.5 104.5 842 117C841.579 120.505 840.766 126.133 839.812 132.726C837.366 149.647 834 172.926 834 183C834 197 843.5 202 851.5 202C859.5 202 922.5 199 1012.5 128C1020.33 122.667 1041 112 1061 112C1086 112 1118.5 128 1118.5 150C1118.5 162.851 1109.47 173.606 1099.7 185.243C1097.3 188.094 1094.86 190.999 1092.5 194C1090.12 196.949 1087.76 199.616 1085.54 202.127C1077.98 210.686 1072 217.449 1072 227.5C1072.33 235.5 1084.4 251.5 1130 251.5C1140.23 251.5 1148.81 250.812 1156.97 250.157C1164.36 249.565 1171.4 249 1179 249C1195 249 1230.5 257 1230.5 288C1230.5 299.5 1220.83 311.833 1216 315C1213.67 316.833 1209 321.8 1209 327C1209 333.5 1214.5 342.5 1245 352C1275.5 361.5 1302.5 383 1302.5 408.5C1302.5 434 1278 440 1264 442.5C1261.97 442.862 1259.29 443.151 1256.19 443.485C1237.9 445.456 1205 449.001 1205 478.5C1205 483.333 1206.4 494.8 1212 502H695C1001.34 389.275 1180.69 395.393 1248.34 397.701C1259.31 398.075 1267.34 398.349 1272.5 398C1240.5 387.2 1166.17 384.5 1133 384.5C891.882 384.5 699.7 453.744 608.609 486.564C588.064 493.966 572.662 499.516 563 502H248Z" fill="#3C1D85"/>
<path d="M72 0H0V144C11.6 146 28.1667 144.833 35 144L26.5 83.5L54.5 143C62.5 141.5 116 140.5 116 83.5C116 37.9 86.6667 8.83333 72 0Z" fill="#F64EA3"/>
<path d="M49 0L31 45L32 0H49Z" fill="#EA479A"/>
<path d="M71 52L93.7498 19.9818C97.7046 24.9602 101.539 30.7207 104.88 37.2319L71 52Z" fill="#EA479A"/>
<path d="M45 84L115.525 73.535C115.835 76.7629 116 80.0851 116 83.5C116 85.2527 115.949 86.9524 115.851 88.6008L45 84Z" fill="#EA479A"/>
<path d="M296 104.5C296 106.985 293.985 109 291.5 109C289.015 109 287 106.985 287 104.5C287 102.015 289.015 100 291.5 100C293.985 100 296 102.015 296 104.5Z" fill="#3EF9F2"/>
<path d="M318 104.5C318 106.985 315.985 109 313.5 109C311.015 109 309 106.985 309 104.5C309 102.015 311.015 100 313.5 100C315.985 100 318 102.015 318 104.5Z" fill="#3EF9F2"/>
<path d="M340 104.5C340 106.985 337.985 109 335.5 109C333.015 109 331 106.985 331 104.5C331 102.015 333.015 100 335.5 100C337.985 100 340 102.015 340 104.5Z" fill="#3EF9F2"/>
<path d="M362 104.5C362 106.985 359.985 109 357.5 109C355.015 109 353 106.985 353 104.5C353 102.015 355.015 100 357.5 100C359.985 100 362 102.015 362 104.5Z" fill="#3EF9F2"/>
<path d="M384 104.5C384 106.985 381.985 109 379.5 109C377.015 109 375 106.985 375 104.5C375 102.015 377.015 100 379.5 100C381.985 100 384 102.015 384 104.5Z" fill="#3EF9F2"/>
<path d="M406 104.5C406 106.985 403.985 109 401.5 109C399.015 109 397 106.985 397 104.5C397 102.015 399.015 100 401.5 100C403.985 100 406 102.015 406 104.5Z" fill="#3EF9F2"/>
<path d="M428 104.5C428 106.985 425.985 109 423.5 109C421.015 109 419 106.985 419 104.5C419 102.015 421.015 100 423.5 100C425.985 100 428 102.015 428 104.5Z" fill="#3EF9F2"/>
<path d="M450 104.5C450 106.985 447.985 109 445.5 109C443.015 109 441 106.985 441 104.5C441 102.015 443.015 100 445.5 100C447.985 100 450 102.015 450 104.5Z" fill="#3EF9F2"/>
<path d="M751.597 0C732.993 24.6373 730 49.229 730 56.0245C730 67.5245 738 84.0245 750 84.0245C762 84.0245 778 71.5245 783.5 56.0245C788.398 42.2206 802.021 12.9505 812.36 0H751.597Z" fill="#FE744F"/>
<path d="M774.14 0C772.025 3.00331 769.975 6.20826 768.009 9.65681C758.26 26.7627 750.655 49.768 747.513 83.784C748.321 83.9418 749.15 84.0245 750 84.0245C750.167 84.0245 750.335 84.0221 750.504 84.0173C753.619 50.3484 761.128 27.7895 770.616 11.1423C772.913 7.11172 775.329 3.42217 777.832 0H774.14Z" fill="#D96149"/>
</svg>
